<svg xmlns="http://www.w3.org/2000/svg" viewBox="0 0 600 340"><rect width="600" height="340" fill="#e7e1f4"/><circle cx="510" cy="64" r="31" fill="#f6cf6d"/><path d="M0 250L160 208 280 245 420 200 600 235V340H0Z" fill="#c4d5c4"/><rect x="45" y="60" width="310" height="60" rx="8" fill="#fffdf4"/><text x="64" y="96" font-family="sans-serif" font-size="19" fill="#173d35">Escola Horizonte Inventado</text><rect x="73" y="120" width="12" height="150" fill="#637f70"/><rect x="356" y="160" width="215" height="50" rx="6" fill="#173d35"/><text x="373" y="191" font-family="sans-serif" font-size="18" fill="#fffdf4">Praça das Nuvens</text><rect x="458" y="210" width="10" height="95" fill="#637f70"/><rect x="145" y="155" width="155" height="155" rx="35" fill="#77649d"/><path d="M184 160v-18q35-40 70 0v18" fill="none" stroke="#463963" stroke-width="12"/><rect x="163" y="224" width="117" height="64" rx="12" fill="#594777"/><rect x="202" y="173" width="85" height="53" rx="5" fill="#fffdf4"/><text x="211" y="194" font-family="sans-serif" font-size="10" fill="#173d35">ESCOLA</text><text x="211" y="207" font-family="sans-serif" font-size="10" fill="#173d35">HORIZONTE</text><text x="211" y="220" font-family="sans-serif" font-size="10" fill="#173d35">INVENTADO</text></svg>
